HIERARCHY
ROOT Hips
{
  OFFSET 13.6774 106.653 -34.4427
  CHANNELS 6 Xposition Yposition Zposition Zrotation Xrotation Yrotation
  JOINT ToSpine
  {
    OFFSET -2.69724 7.43032 -0.144315
    CHANNELS 3 Zrotation Xrotation Yrotation
    JOINT Spine
    {
      OFFSET -0.0310711 10.7595 1.96963
      CHANNELS 3 Zrotation Xrotation Yrotation
      JOINT Spine1
      {
        OFFSET 19.9056 3.91189 0.764692
        CHANNELS 3 Zrotation Xrotation Yrotation
        JOINT Neck
        {
          OFFSET 25.9749 7.03908 -0.130764
          CHANNELS 3 Zrotation Xrotation Yrotation
          JOINT Head
          {
            OFFSET 9.52751 0.295786 -0.907742
            CHANNELS 3 Zrotation Xrotation Yrotation
            End Site
            {
              OFFSET 16.4037 0.713936 2.7358
            }
          }
        }
        JOINT LeftShoulder
        {
          OFFSET 17.7449 4.33886 11.7777
          CHANNELS 3 Zrotation Xrotation Yrotation
          JOINT LeftArm
          {
            OFFSET 0.911315 1.27913 9.80584
            CHANNELS 3 Zrotation Xrotation Yrotation
            JOINT LeftForeArm
            {
              OFFSET 28.6126 1.18197 -3.53199
              CHANNELS 3 Zrotation Xrotation Yrotation
              JOINT LeftHand
              {
                OFFSET 27.5088 0.0218783 0.327423
                CHANNELS 3 Zrotation Xrotation Yrotation
                End Site
                {
                  OFFSET 18.6038 -0.000155887 0.382096
                }
              }
            }
          }
        }
        JOINT RightShoulder
        {
          OFFSET 17.1009 2.89543 -12.2328
          CHANNELS 3 Zrotation Xrotation Yrotation
          JOINT RightArm
          {
            OFFSET 1.4228 0.178766 -10.211
            CHANNELS 3 Zrotation Xrotation Yrotation
            JOINT RightForeArm
            {
              OFFSET 28.733 1.87905 2.64907
              CHANNELS 3 Zrotation Xrotation Yrotation
              JOINT RightHand
              {
                OFFSET 27.4588 0.290562 -0.101845
                CHANNELS 3 Zrotation Xrotation Yrotation
                End Site
                {
                  OFFSET 17.8396 -0.255518 -0.000602873
                }
              }
            }
          }
        }
      }
    }
  }
  JOINT LeftUpLeg
  {
    OFFSET -5.61296 -2.22332 -10.2353
    CHANNELS 3 Zrotation Xrotation Yrotation
    JOINT LeftLeg
    {
      OFFSET 2.56703 -44.7417 -7.93097
      CHANNELS 3 Zrotation Xrotation Yrotation
      JOINT LeftFoot
      {
        OFFSET 3.16933 -46.5642 -3.96578
        CHANNELS 3 Zrotation Xrotation Yrotation
        JOINT LeftToeBase
        {
          OFFSET 0.346054 -6.02161 12.8035
          CHANNELS 3 Zrotation Xrotation Yrotation
          End Site
          {
            OFFSET 0.134235 -1.35082 5.13018
          }
        }
      }
    }
  }
  JOINT RightUpLeg
  {
    OFFSET -5.7928 -1.72406 10.6446
    CHANNELS 3 Zrotation Xrotation Yrotation
    JOINT RightLeg
    {
      OFFSET -2.57161 -44.7178 -7.85259
      CHANNELS 3 Zrotation Xrotation Yrotation
      JOINT RightFoot
      {
        OFFSET -3.10148 -46.5936 -4.03391
        CHANNELS 3 Zrotation Xrotation Yrotation
        JOINT RightToeBase
        {
          OFFSET -0.0828122 -6.13587 12.8035
          CHANNELS 3 Zrotation Xrotation Yrotation
          End Site
          {
            OFFSET -0.131328 -1.35082 5.13018
          }
        }
      }
    }
  }
}
MOTION
Frames: 15
Frame Time: 0.03333333333333333
0.0000 93.1000 0.0000 68.8170 74.7273 6.6067 -71.4335 -0.2428 88.2596 133.7839 69.2038 -38.3881 6.3615 25.1519 -2.1189 -143.2328 30.3457 166.6054 -165.0836 70.9283 -175.0180 1.8012 1.9467 -26.8057 -72.5953 31.6417 -98.0912 9.8263 16.1180 -29.0993 11.3368 -1.0067 -2.2842 -0.5226 0.8166 20.9822 -79.2643 -37.1001 103.2128 3.7129 -15.2204 17.8332 8.0100 0.2290 -0.3088 -37.2506 4.2274 78.4009 -2.8486 43.8667 -5.7659 -2.9811 5.3366 0.2100 -6.3550 -7.7324 23.8589 -36.2414 2.3773 96.9005 38.4238 81.6656 -13.3952 -9.1704 -11.6335 0.9989 6.2069 -1.6629 -16.6953 
0.0000 93.1000 0.0000 65.8818 61.2031 6.7090 -71.3700 1.5928 88.3788 141.7212 70.6372 -46.0640 7.7097 27.8045 -3.6899 -143.2715 34.4556 163.3599 -178.4392 75.2786 -159.1524 3.7638 2.1494 -26.9941 -67.6385 35.7801 -97.0793 6.5911 11.0452 -22.0499 12.5817 -3.4803 -2.3744 -1.5077 2.6463 18.6167 -67.5492 -31.7371 119.6809 6.4577 -9.6382 22.1274 6.5428 3.3555 -0.3427 -39.2781 11.3646 77.0101 -2.5464 38.5799 -11.0755 -2.7439 3.8679 2.2360 -5.3076 -1.2840 22.6267 -32.1394 1.1290 99.1994 43.1742 82.4256 -14.4118 -9.3134 -14.7265 0.4542 5.3921 -2.8308 -17.1129 
0.0000 93.1000 0.0000 64.9769 48.5740 5.7701 -71.4374 -0.1099 88.7527 148.8029 70.7605 -52.7375 8.2254 29.7931 -4.2482 -145.5072 36.6868 159.5056 163.3705 76.6961 -141.7006 2.0260 1.2521 -26.6881 -86.0041 40.7933 -83.2331 2.2689 17.4242 -16.5567 12.5538 -1.1736 -0.6011 -1.5773 3.8255 17.7087 -64.1844 -28.0884 131.8820 7.9358 -10.7280 25.4877 7.3722 0.6926 0.7826 -44.3036 13.6654 74.3089 -2.4369 34.1420 -12.2591 -2.3229 3.3480 1.1111 -5.9177 -0.2394 22.2872 -24.2632 -2.3083 97.5614 62.8097 84.1018 -31.8100 -9.9868 -14.3888 0.1767 6.6196 -8.4101 -19.5602 
0.0000 93.1000 0.0000 65.2877 39.0209 6.7501 -71.3023 0.3462 88.5484 154.8632 68.0833 -57.8639 7.0954 30.1681 -4.8341 -144.9102 38.0684 154.4093 161.8836 78.1951 -135.7395 2.4783 0.4534 -25.3230 -108.7912 42.6750 -65.2014 -0.7829 23.2123 -8.6060 12.5996 -0.8963 1.3339 -1.0362 4.4116 16.0177 -66.0764 -27.1933 142.6917 10.0306 -13.6418 29.5966 7.6857 0.7086 2.5388 -43.6841 15.9841 69.2765 -2.7811 39.8904 -12.7589 -3.4669 -0.5785 0.5473 -6.6375 -18.7317 27.0648 -16.8325 -7.7604 91.1627 92.5368 83.8702 -66.2821 -9.8369 -14.6325 0.6086 7.4541 -13.9628 -15.6734 
0.0000 93.1000 0.0000 64.9669 33.9684 5.6209 -71.3105 0.0461 88.6516 155.7802 64.5594 -62.6543 5.5544 29.9748 -3.1565 -145.1499 38.1373 150.8390 160.5781 79.0835 -134.3451 2.2249 -1.1215 -24.2641 -115.2681 47.3605 -64.1388 -3.4687 24.0705 1.7692 13.1678 -0.8715 2.6075 -1.3359 5.5399 14.7593 -66.1200 -33.8618 151.4896 12.7360 -14.4643 36.8404 7.0285 0.8394 3.1178 -39.3267 17.2286 76.0687 -4.3940 49.7956 -13.6527 -0.8022 -3.9740 0.3083 -6.6567 -29.5039 23.3368 -10.2327 -14.9023 86.1872 119.7555 83.9172 -99.4158 -8.6605 -12.7163 -0.2760 8.8515 -18.7754 -14.9127 
0.0000 93.1000 0.0000 64.2035 32.5317 3.6590 -71.0926 0.8375 88.8802 154.6799 60.2389 -66.5180 4.4067 27.9434 -0.3973 -148.0658 38.2516 146.8150 161.1153 78.9137 -134.1057 2.6646 -3.1357 -23.6652 -116.9415 50.6245 -73.1756 -4.7348 29.1814 7.8774 11.3618 -1.5700 1.7755 -1.3261 5.8564 15.3110 -64.9950 -37.7212 157.1490 12.9901 -12.1733 44.4622 7.6042 1.7683 3.4586 -33.3359 17.0641 83.6926 -5.2631 56.0327 -14.6070 3.6489 -3.2353 0.2472 -7.4682 -36.2713 19.6062 -5.1717 -21.2156 84.2652 124.4544 83.9573 -111.2829 -8.3966 -10.6394 -0.2594 9.0668 -19.3928 -16.9343 
0.0000 93.1000 0.0000 60.1778 32.5217 6.5259 -71.0291 0.0561 88.7686 152.7456 57.6707 -64.7525 2.9649 26.0425 0.4656 -149.1967 38.1788 144.9995 164.9045 79.0685 -137.0280 1.5138 -5.5811 -23.7343 -116.0751 51.6461 -85.0514 -4.9645 35.7274 9.0587 10.9179 -0.8204 0.4315 -1.2483 4.8090 16.2197 -62.0387 -36.4499 162.6978 14.5309 -11.1846 49.1634 8.4705 0.7839 4.6695 -25.2607 14.0225 81.5122 -7.4816 62.7507 -13.5494 4.5800 -1.8959 -0.4545 -8.4776 -40.0704 17.8625 -0.1568 -25.1351 79.1985 119.6334 84.9799 -113.5703 -7.5138 -9.7902 -0.2276 10.1407 -19.0930 -17.8052 
0.0000 93.1000 0.0000 56.0243 31.7876 9.7535 -71.0142 -0.0125 88.7021 152.7851 55.5786 -65.7345 3.3237 24.8609 0.4778 -150.1711 37.9279 144.5627 166.7874 78.8520 -138.8909 1.1484 -7.7627 -24.9313 -113.0265 50.4310 -99.2233 -3.9475 37.7147 9.2206 11.3027 -0.8928 -0.0332 -1.3444 5.1393 17.3257 -59.1133 -36.7755 163.8531 19.8716 -13.3611 53.0741 8.5414 0.7696 4.4461 -18.3539 11.1141 81.3157 -9.6166 66.7766 -10.4428 4.7076 -1.7690 -0.4551 -9.1514 -41.7509 18.3681 4.9158 -26.7919 77.5667 126.8187 83.6798 -121.9198 -7.0327 -9.7524 -0.1593 8.6205 -16.0406 -18.9533 
0.0000 93.1000 0.0000 53.9782 31.9176 7.7958 -71.0325 0.4004 88.5730 151.8558 54.5762 -66.8139 5.5372 23.9669 0.1121 -151.9427 37.9009 145.6285 168.1571 78.6947 -140.4108 1.1010 -10.1489 -24.7595 -112.1947 48.5344 -114.1020 -1.8313 37.4957 9.0345 12.8038 -0.6952 0.7851 -0.8975 4.5422 19.3619 -56.7244 -34.8440 165.8689 19.7424 -15.4575 48.9202 9.0480 0.2946 2.9475 -15.8389 9.1242 83.9606 -9.6146 67.6363 -9.2495 5.6618 -1.0943 -0.9498 -9.1902 -41.5856 17.2476 7.6607 -26.9249 77.1292 134.8106 83.8881 -129.9236 -7.0608 -7.1450 0.4313 9.3967 -20.3953 -18.5558 
0.0000 93.1000 0.0000 53.6793 29.9282 6.5135 -71.3539 0.0336 88.5310 151.8668 53.5413 -68.6227 8.5972 23.9231 -1.1801 -151.1788 37.0672 143.7708 174.3709 78.0437 -143.9531 0.7832 -11.9155 -22.0110 -112.1714 50.6921 -126.0729 -0.2975 38.0319 9.0717 14.9084 -1.0573 1.0030 -1.5092 4.3641 21.1161 -55.0631 -33.3253 166.8655 14.1761 -13.9918 40.9614 8.7234 0.3021 -0.6431 -15.3695 9.0575 86.0659 -10.5203 69.6631 -8.0743 5.8057 -0.9221 -0.5060 -8.2921 -43.2419 15.9257 8.0105 -26.0563 76.4192 147.9711 82.0498 -144.9778 -6.5185 -7.9700 0.0072 10.9273 -22.5150 -18.0408 
0.0000 93.1000 0.0000 52.6911 29.5676 6.4001 -71.3688 -0.6939 88.6022 150.7662 52.6571 -68.7890 10.1206 22.9298 -1.7831 -153.2276 37.0834 145.7804 171.2552 77.9557 -141.6518 0.2896 -11.8787 -19.0881 -103.2407 52.6806 -144.1741 -0.8761 36.7103 9.1019 16.0446 -1.0028 1.1140 -2.0342 4.0872 22.8644 -53.7009 -33.7930 165.8107 10.5626 -11.6471 36.8024 10.5551 -0.3922 -6.4249 -13.5761 9.1187 86.9778 -12.0462 70.8293 -7.5672 6.7010 -0.6593 -0.5112 -8.3904 -42.6591 15.7007 8.9562 -26.9987 75.3220 156.0294 79.1267 -154.1167 -6.7966 -7.7543 -0.2953 11.5845 -27.4157 -19.0384 
0.0000 93.1000 0.0000 51.8030 30.7605 5.3480 -71.3802 -0.4810 88.7004 149.7497 51.8102 -68.7461 11.1054 21.8524 -1.0835 -153.2295 36.8706 146.2569 174.5541 76.5787 -141.4353 0.1296 -12.1788 -18.9611 -92.9346 50.6137 -160.0282 -3.8254 36.0167 9.1018 13.8410 -0.4667 -0.4408 -1.2030 3.7425 24.2939 -51.9492 -34.7715 163.6305 8.0146 -7.9633 34.8738 14.7305 -1.5394 -9.8244 -13.1929 8.0979 88.2419 -12.7031 70.6781 -7.3117 7.0683 -0.8331 -1.7162 -9.8925 -42.6766 14.8502 9.0077 -27.9968 75.3576 159.6678 75.9909 -156.7305 -6.7501 -7.5573 0.8306 12.4032 -28.8528 -16.8698 
0.0000 93.1000 0.0000 50.6241 30.6805 5.4333 -71.5141 0.5474 88.6788 148.8091 50.4669 -67.7665 10.5876 21.1300 -0.7505 -153.1696 35.7023 145.0663 174.5622 76.6190 -141.5878 0.7916 -13.2672 -20.5789 -85.4553 47.5180 -169.0449 -3.2705 37.4487 0.1373 9.7822 -0.9970 -1.7455 -0.7081 3.1495 27.0600 -50.2291 -37.1541 158.6794 7.3948 -7.6663 37.0126 15.4541 -1.1996 -11.6536 -13.1937 9.4302 90.0553 -12.4819 72.1325 -8.5931 6.7587 -1.7967 -1.9395 -8.8511 -42.8532 13.7402 9.0219 -28.9626 75.3139 161.7780 74.1798 -158.4152 -6.5788 -6.6682 1.3942 11.6381 -29.6673 -16.7945 
0.0000 93.1000 0.0000 50.9303 31.0085 4.1346 -71.5526 0.8334 88.3615 145.5746 50.4034 -65.7015 10.3259 20.0997 -0.7018 -154.2034 36.1440 147.2823 177.1470 75.7045 -143.1998 0.7172 -13.8605 -19.1940 -76.3935 37.4768 -176.4814 5.3668 28.8459 -17.7697 8.8585 -0.8617 -2.7736 -0.2502 2.3526 27.1991 -46.6437 -39.9190 157.5129 7.0726 -6.6326 38.9364 15.3779 -1.5350 -11.3638 -14.4205 8.3510 93.0280 -11.6773 70.6995 -10.1952 6.3181 -2.4604 -2.2119 -9.1587 -40.5154 13.2329 8.9431 -29.7626 76.4216 161.6079 74.3625 -158.4093 -7.0251 -6.5459 1.9345 11.8959 -30.8523 -15.9742 
0.0000 93.1000 0.0000 50.6965 30.5399 1.2852 -71.5079 -0.7055 88.0183 142.8473 50.5556 -62.6540 10.0294 18.1101 -1.4058 -155.1986 35.9377 148.6190 178.9043 75.8982 -145.2846 -0.6897 -14.0921 -17.1240 -68.7629 26.6458 -179.2325 12.9578 23.6312 -26.5459 10.5363 -0.1833 -3.7621 -1.0228 2.0705 28.8694 -42.5599 -38.3879 157.6645 3.7372 -2.5386 40.8290 15.8072 -2.5338 -11.2329 -16.6824 8.0061 94.7709 -10.8936 67.9679 -12.4534 7.3046 -2.8170 -2.1118 -9.1938 -41.1599 13.7808 9.3275 -30.2631 76.3448 161.8043 74.3864 -156.4861 -6.9020 -7.7830 1.1652 12.7901 -29.4721 -16.0994 
